# xmcd CD database file
#
# Track frame offsets:
#	182
#	19125
#	35242
#	50212
#	65650
#	82982
#	98000
#	116482
#	133857
#	149900
#	167975
#
# Disc length: 2497 seconds
#
# Revision: 0
# Processed by: cddbd v1.5.2PL0 Copyright (c) Steve Scherf et al.
# Submitted via: CDex 1.51
#
DISCID=a909bf0b
DTITLE=Julio Kageta - Bihar eta Berandu
DYEAR=1991
DGENRE=Euskal Herriko Rock Gogorra
TTITLE0=Mea Kulpa
TTITLE1=Senar Ihekia
TTITLE2=Postmoderno
TTITLE3=Gaurko Iraultzailea
TTITLE4=Bi Tanta
TTITLE5=Kronika Beltza
TTITLE6=Hitz Ederrena
TTITLE7=Ametsetan
TTITLE8=Monstruaren Hezurdura
TTITLE9=Six Of Birminham
TTITLE10=Baloretako Eskala
EXTD=YEAR: 1991
EXTT0=
EXTT1=
EXTT2=
EXTT3=
EXTT4=
EXTT5=
EXTT6=
EXTT7=
EXTT8=
EXTT9=
EXTT10=
PLAYORDER=
